<?xml version="1.0" encoding="UTF-8" standalone="no"?>
<svg
   xmlns:dc="http://purl.org/dc/elements/1.1/"
   xmlns:cc="http://creativecommons.org/ns#"
   xmlns:rdf="http://www.w3.org/1999/02/22-rdf-syntax-ns#"
   xmlns:svg="http://www.w3.org/2000/svg"
   xmlns="http://www.w3.org/2000/svg"
   xmlns:sodipodi="http://sodipodi.sourceforge.net/DTD/sodipodi-0.dtd"
   xmlns:inkscape="http://www.inkscape.org/namespaces/inkscape"
   width="50"
   height="30"
   viewBox="0 0 13.229167 7.9374996"
   version="1.1"
   id="svg80"
   inkscape:version="1.0.1 (0767f8302a, 2020-10-17)"
   sodipodi:docname="brick.png.svg"
   inkscape:export-filename="/home/ivan/Documents/python/learning_python/brick2.png"
   inkscape:export-xdpi="96"
   inkscape:export-ydpi="96">
  <defs
     id="defs74">
    <inkscape:perspective
       sodipodi:type="inkscape:persp3d"
       inkscape:vp_x="-8.8687641 : 15 : 1"
       inkscape:vp_y="0 : -3779.5277 : 0"
       inkscape:vp_z="714.31579 : 15 : 1"
       inkscape:persp3d-origin="352.72351 : 20 : 1"
       id="perspective643" />
    <inkscape:perspective
       sodipodi:type="inkscape:persp3d"
       inkscape:vp_x="0 : 27.988906 : 1"
       inkscape:vp_y="0 : -7109.6796 : 0"
       inkscape:vp_z="50 : 27.988906 : 1"
       inkscape:persp3d-origin="25 : 37.394419 : 1"
       id="perspective623" />
    <inkscape:perspective
       sodipodi:type="inkscape:persp3d"
       inkscape:vp_x="0 : 3.9687498 : 1"
       inkscape:vp_y="0 : 1000 : 0"
       inkscape:vp_z="13.229167 : 3.9687498 : 1"
       inkscape:persp3d-origin="6.6145835 : 2.6458332 : 1"
       id="perspective441" />
  </defs>
  <sodipodi:namedview
     id="base"
     pagecolor="#ffffff"
     bordercolor="#666666"
     borderopacity="1.0"
     inkscape:pageopacity="0.0"
     inkscape:pageshadow="2"
     inkscape:zoom="21.06"
     inkscape:cx="25"
     inkscape:cy="16.899335"
     inkscape:document-units="px"
     inkscape:current-layer="layer1"
     inkscape:document-rotation="0"
     showgrid="false"
     units="px"
     inkscape:snap-grids="true"
     inkscape:window-width="1208"
     inkscape:window-height="960"
     inkscape:window-x="72"
     inkscape:window-y="27"
     inkscape:window-maximized="1" />
  <metadata
     id="metadata77">
    <rdf:RDF>
      <cc:Work
         rdf:about="">
        <dc:format>image/svg+xml</dc:format>
        <dc:type
           rdf:resource="http://purl.org/dc/dcmitype/StillImage" />
        <dc:title></dc:title>
      </cc:Work>
    </rdf:RDF>
  </metadata>
  <g
     inkscape:label="Layer 1"
     inkscape:groupmode="layer"
     id="layer1">
    <rect
       style="fill:#803300;stroke-width:0.264583"
       id="rect82"
       width="0.013637794"
       height="0.076506495"
       x="-0.012956681"
       y="0.053517334" />
    <rect
       style="fill:#803300;stroke-width:0.264694"
       id="rect99"
       width="0.67334694"
       height="7.8724337"
       x="0.00068111345"
       y="0.053517334" />
    <rect
       style="fill:#803300;stroke-width:0.264694"
       id="rect99-3"
       width="0.67334694"
       height="7.8724337"
       x="12.580463"
       y="0.034134135" />
    <rect
       style="fill:#803300;stroke-width:0.297159"
       id="rect99-6"
       width="11.994709"
       height="0.55699033"
       x="0.58575422"
       y="0.034134135" />
    <rect
       style="fill:#803300;stroke-width:0.297159"
       id="rect99-6-7"
       width="11.994709"
       height="0.55699033"
       x="0.58575445"
       y="7.3495774" />
    <path
       id="rect141"
       style="fill:#aa4400;stroke-width:0.999999"
       transform="scale(0.26458333)"
       d="M 2.2148438,2.234375 V 27.777344 H 47.548828 V 2.234375 Z m 6.2128906,2.7558594 c 0.078595,-0.00153 0.1171073,0.1152687 0.1894531,0.1308594 0.038449,0.00828 0.07824,0.010145 0.1171875,0.015625 0.1077883,0.015166 0.2059618,0.026711 0.3144531,0.013672 0.1169197,-0.018066 0.1470903,-0.013226 0.2929688,0.011719 0.045109,0.00771 0.1337438,0.045613 0.1875,0.037109 0.1131249,-0.019842 0.2275483,-0.014342 0.3417969,-0.011719 0.0156,-0.00135 0.019303,-0.0029 0.035156,-0.00391 0.00671,-4.239e-4 0.00905,0.00226 0.015625,0.00195 0.00244,-1.121e-4 0.00344,9.52e-5 0.00586,0 0.073127,9.214e-4 0.048758,0.00184 0.1074216,0.00195 0.02095,4.16e-5 0.02779,0.011832 0.04687,0.013672 0.01188,0.00312 0.03601,-4.757e-4 0.04492,0.00391 0.177352,-0.00285 0.356343,-0.013886 0.533203,-0.00391 0.208459,0.011758 0.265046,0.025283 0.449219,0.054687 0.05174,0.0034 0.104444,0.00768 0.15625,0.00977 0.132579,0.00531 0.112404,-0.00476 0.05859,0.011719 0.02058,-0.00154 0.04018,0.00828 0.06055,0.00977 0.02466,-0.014255 0.05072,-0.024685 0.07617,-0.037109 0.103256,-0.00635 0.200733,0.042732 0.300781,0.056641 0.09642,0.013391 0.198245,0.00432 0.294922,-0.00195 0.03707,-0.00525 0.02256,-0.002 0.04883,-0.00586 0.214184,-0.031413 0.333094,0.055127 0.365234,0.1601563 0.219869,-0.00244 0.440944,0.014073 0.660156,0.00195 0.220522,-0.012174 0.436454,-0.048374 0.652344,-0.091797 0.103703,-0.038702 0.210496,-0.036087 0.318359,-0.025391 0.322851,0.032054 -0.0071,0.3577052 -0.123046,0.4765625 0.03241,-0.00345 0.06372,-0.018051 0.04883,-0.00781 -0.120033,0.08246 -0.100853,0.061171 -0.04883,0.00781 -0.06861,0.00731 -0.176394,0.019424 -0.103516,0.015625 -0.248135,0.048915 -0.492714,0.085852 -0.746094,0.099609 -0.248521,0.013517 -0.499297,-0.012394 -0.748047,-0.00195 -0.451854,0.00178 -0.192222,-7.162e-4 -0.53125,0.00391 -0.114289,0.00156 -0.227862,0.013078 -0.341797,0.00391 -0.05731,-0.00463 -0.114855,-0.015996 -0.171874,-0.023437 -0.01989,0.013031 -0.03906,0.02707 -0.06055,0.037109 -0.05808,0.027118 -0.118649,0.050772 -0.179688,0.070312 -0.02069,0.00662 -0.04287,0.00533 -0.06445,0.00781 -0.05118,0.00506 -0.165475,0.018014 -0.216797,0.017578 -0.310793,-0.00264 -0.618679,-0.062614 -0.9257811,-0.1035156 -0.048435,-0.00752 -0.0959,-0.017352 -0.1445313,-0.023437 -0.094307,-0.011844 -0.1925302,0.00998 -0.2871094,0 -0.1413664,-3.231e-4 -0.2824813,-8.891e-4 -0.4238281,0.00195 -0.7075438,-0.00157 -1.415661,-0.02022 -2.1230469,0 -0.2068535,0.00695 -0.4141305,0.021781 -0.6210937,0.023438 C 5.8206393,5.9529569 5.3555316,5.901406 4.8945312,5.8203125 4.5002037,5.7509465 4.514442,5.4231957 4.8085938,5.3691406 4.8643437,5.2948541 4.9596259,5.2375875 5.1308594,5.2597656 5.8427572,5.351971 6.5594829,5.2361721 7.2675781,5.1640625 7.6432035,5.1287617 7.6357191,5.1303736 8.0136719,5.09375 8.1982434,5.0758826 8.175067,5.0812669 8.2910156,5.0566406 c 0.013572,-0.00668 0.028685,-0.012355 0.042969,-0.017578 0.037614,-0.034775 0.067552,-0.04832 0.09375,-0.048828 z m 2.9453126,0.90625 c -0.0076,0.00377 -0.01421,0.00923 -0.02149,0.013672 0.0051,-0.0012 0.0021,-0.00229 0.03516,-0.00977 0.0045,-0.00174 -0.0094,-0.00603 -0.01367,-0.00391 z" />
    <path
       id="rect143"
       style="fill:#d45500;stroke-width:0.999999"
       transform="scale(0.26458333)"
       d="M 4.0195312,3.9609375 V 26.173828 H 45.414062 V 3.9609375 Z m 4.4082032,1.0292969 c 0.078595,-0.00153 0.1171073,0.1152687 0.1894531,0.1308594 0.038449,0.00828 0.07824,0.010145 0.1171875,0.015625 0.1077883,0.015166 0.2059618,0.026711 0.3144531,0.013672 0.1169197,-0.018066 0.1470903,-0.013226 0.2929688,0.011719 0.045109,0.00771 0.1337438,0.045613 0.1875,0.037109 0.1131249,-0.019842 0.2275483,-0.014342 0.3417969,-0.011719 0.0156,-0.00135 0.019303,-0.0029 0.035156,-0.00391 0.00671,-4.239e-4 0.00905,0.00226 0.015625,0.00195 0.00244,-1.121e-4 0.00344,9.52e-5 0.00586,0 0.073127,9.214e-4 0.048758,0.00184 0.1074216,0.00195 0.02095,4.16e-5 0.02779,0.011832 0.04687,0.013672 0.01188,0.00312 0.03601,-4.757e-4 0.04492,0.00391 0.177352,-0.00285 0.356343,-0.013886 0.533203,-0.00391 0.208459,0.011758 0.265046,0.025283 0.449219,0.054687 0.05174,0.0034 0.104444,0.00768 0.15625,0.00977 0.132579,0.00531 0.112404,-0.00476 0.05859,0.011719 0.02058,-0.00154 0.04018,0.00828 0.06055,0.00977 0.02466,-0.014255 0.05072,-0.024685 0.07617,-0.037109 0.103256,-0.00635 0.200733,0.042732 0.300781,0.056641 0.09642,0.013391 0.198245,0.00432 0.294922,-0.00195 0.03707,-0.00525 0.02256,-0.002 0.04883,-0.00586 0.214184,-0.031413 0.333094,0.055127 0.365234,0.1601563 0.219869,-0.00244 0.440944,0.014073 0.660156,0.00195 0.220522,-0.012174 0.436454,-0.048374 0.652344,-0.091797 0.103703,-0.038702 0.210496,-0.036087 0.318359,-0.025391 0.322851,0.032054 -0.0071,0.3577052 -0.123046,0.4765625 0.03241,-0.00345 0.06372,-0.018051 0.04883,-0.00781 -0.120033,0.08246 -0.100853,0.061171 -0.04883,0.00781 -0.06861,0.00731 -0.176394,0.019424 -0.103516,0.015625 -0.248135,0.048915 -0.492714,0.085852 -0.746094,0.099609 -0.248521,0.013517 -0.499297,-0.012394 -0.748047,-0.00195 -0.451854,0.00178 -0.192222,-7.162e-4 -0.53125,0.00391 -0.114289,0.00156 -0.227862,0.013078 -0.341797,0.00391 -0.05731,-0.00463 -0.114855,-0.015996 -0.171874,-0.023437 -0.01989,0.013031 -0.03906,0.02707 -0.06055,0.037109 -0.05808,0.027118 -0.118649,0.050772 -0.179688,0.070312 -0.02069,0.00662 -0.04287,0.00533 -0.06445,0.00781 -0.05118,0.00506 -0.165475,0.018014 -0.216797,0.017578 -0.310793,-0.00264 -0.618679,-0.062614 -0.9257811,-0.1035156 -0.048435,-0.00752 -0.0959,-0.017352 -0.1445313,-0.023437 -0.094307,-0.011844 -0.1925302,0.00998 -0.2871094,0 -0.1413664,-3.231e-4 -0.2824813,-8.891e-4 -0.4238281,0.00195 -0.7075438,-0.00157 -1.415661,-0.02022 -2.1230469,0 -0.2068535,0.00695 -0.4141305,0.021781 -0.6210937,0.023438 C 5.8206393,5.9529569 5.3555316,5.901406 4.8945312,5.8203125 4.5002037,5.7509465 4.514442,5.4231957 4.8085938,5.3691406 4.8643437,5.2948541 4.9596259,5.2375875 5.1308594,5.2597656 5.8427572,5.351971 6.5594829,5.2361721 7.2675781,5.1640625 7.6432035,5.1287617 7.6357191,5.1303736 8.0136719,5.09375 8.1982434,5.0758826 8.175067,5.0812669 8.2910156,5.0566406 c 0.013572,-0.00668 0.028685,-0.012355 0.042969,-0.017578 0.037614,-0.034775 0.067552,-0.04832 0.09375,-0.048828 z m 2.9453126,0.90625 c -0.0076,0.00377 -0.01421,0.00923 -0.02149,0.013672 0.0051,-0.0012 0.0021,-0.00229 0.03516,-0.00977 0.0045,-0.00174 -0.0094,-0.00603 -0.01367,-0.00391 z" />
    <path
       id="rect145"
       style="fill:#ff6600;stroke-width:0.999999"
       transform="scale(0.26458333)"
       d="m 12.439453,5.4179688 c 0.0092,0.014519 0.0264,0.025171 0.03125,0.041016 0.219869,-0.00244 0.440944,0.014073 0.660156,0.00195 0.103003,-0.00569 0.203225,-0.028511 0.304688,-0.042969 z m 1.794922,0 c 0.03316,0.1113774 -0.169725,0.3140231 -0.255859,0.4023437 0.03241,-0.00345 0.06372,-0.018051 0.04883,-0.00781 -0.120033,0.08246 -0.100853,0.061171 -0.04883,0.00781 -0.06861,0.00731 -0.176394,0.019424 -0.103516,0.015625 -0.248135,0.048915 -0.492714,0.085852 -0.746094,0.099609 -0.248521,0.013517 -0.499297,-0.012394 -0.748047,-0.00195 -0.451854,0.00178 -0.192222,-7.162e-4 -0.53125,0.00391 -0.114289,0.00156 -0.227862,0.013078 -0.341797,0.00391 -0.05731,-0.00463 -0.114853,-0.015996 -0.171874,-0.023437 -0.01989,0.013031 -0.03906,0.02707 -0.06055,0.037109 -0.05808,0.027118 -0.118649,0.050772 -0.179688,0.070312 -0.02069,0.00662 -0.04287,0.00533 -0.06445,0.00781 -0.05118,0.00506 -0.165475,0.018014 -0.216797,0.017578 -0.310793,-0.00264 -0.618679,-0.062614 -0.9257811,-0.1035156 -0.048435,-0.00752 -0.0959,-0.017352 -0.1445313,-0.023437 -0.094307,-0.011844 -0.1925304,0.00998 -0.2871094,0 -0.1413664,-3.231e-4 -0.2824813,-8.892e-4 -0.4238281,0.00195 -0.7075438,-0.00157 -1.4156613,-0.02022 -2.1230469,0 -0.2068535,0.00695 -0.4141305,0.021782 -0.6210937,0.023438 -0.3085296,0.00247 -0.6144111,-0.026284 -0.9199219,-0.064453 V 24.664062 H 44.126953 V 5.4179688 Z m -2.861328,0.4785156 c -0.0076,0.00377 -0.01421,0.00923 -0.02149,0.013672 0.0051,-0.0012 0.0021,-0.00229 0.03516,-0.00977 0.0045,-0.00174 -0.0094,-0.00603 -0.01367,-0.00391 z" />
    <rect
       style="fill:#ff7f2a;stroke-width:0.264583"
       id="rect147"
       width="9.5398636"
       height="4.4384608"
       x="1.7666957"
       y="1.7252764" />
    <rect
       style="fill:#ff9955;stroke-width:0.264583"
       id="rect149"
       width="8.9462862"
       height="3.9670651"
       x="2.0764182"
       y="1.9899095" />
    <path
       id="path187"
       style="fill:#550000;stroke-width:0.0474834"
       transform="scale(0.26458333)"
       d="m 24.880859,0.13867188 c -15.0680582,0 -22.6484371,0.0152858 -22.6484371,0.046875 0,0.0302793 -0.397327,0.046875 -1.09375,0.046875 H 0.046875 V 15.078125 29.925781 l 1.859375,-0.03125 c 1.0227956,-0.0173 11.70705,-0.0332 23.742188,-0.0332 H 47.53125 V 28.841797 27.820312 L 24.869141,27.808594 2.2070312,27.796875 2.1953125,15.011719 2.1835938,2.2265625 H 24.857422 47.53125 V 1.1816406 0.13867188 Z" />
    <path
       style="fill:#550000;stroke-width:0.0474834"
       d="M 47.578348,15 V 0.1377018 h 1.234567 1.234568 V 15 29.862298 h -1.234568 -1.234567 z"
       id="path189"
       transform="scale(0.26458333)" />
    <path
       id="path191"
       style="fill:#800000;stroke-width:0.0125633"
       d="m 1.0635009,1.047998 v 3.3729209 3.3734374 h 5.992399 5.9929161 V 4.4209189 1.047998 H 7.0558999 Z m 0.4645712,0.4392497 h 5.483903 5.4839029 V 4.4333209 7.3799111 H 7.0119751 1.5280721 V 4.4333209 Z" />
    <path
       id="path193"
       style="fill:#aa0000;stroke-width:0.0125633"
       d="M 0.97565108,1.1673699 V 4.100524 7.0341952 H 6.4471517 11.918652 V 4.100524 1.1673699 H 6.4471517 Z M 2.137854,1.4335035 c 0.020795,-4.048e-4 0.030985,0.030498 0.050126,0.034623 0.010173,0.00219 0.020701,0.00268 0.031006,0.00413 0.028519,0.00401 0.054494,0.00707 0.083199,0.00362 0.030935,-0.00478 0.038918,-0.0035 0.077515,0.0031 0.011935,0.00204 0.035386,0.012068 0.049609,0.00982 0.029931,-0.00525 0.060205,-0.00379 0.090434,-0.0031 0.00413,-3.572e-4 0.00511,-7.673e-4 0.0093,-0.00103 0.00178,-1.122e-4 0.00239,5.979e-4 0.00413,5.159e-4 6.456e-4,-2.97e-5 9.102e-4,2.52e-5 0.00155,0 0.019348,2.438e-4 0.0129,4.868e-4 0.028422,5.159e-4 0.00554,1.1e-5 0.00735,0.00313 0.012401,0.00362 0.00314,8.255e-4 0.00953,-1.258e-4 0.011885,0.00103 0.046924,-7.54e-4 0.094282,-0.00367 0.1410766,-0.00103 0.055155,0.00311 0.070127,0.00669 0.1188559,0.014469 0.01369,8.996e-4 0.027634,0.00203 0.041341,0.00258 0.035078,0.0014 0.02974,-0.00126 0.015502,0.0031 0.00545,-4.074e-4 0.010631,0.00219 0.016021,0.00259 0.00652,-0.00377 0.01342,-0.00653 0.020153,-0.00982 0.02732,-0.00168 0.053111,0.011306 0.079582,0.014986 0.025511,0.00354 0.052452,0.00114 0.078031,-5.159e-4 0.00981,-0.00139 0.00597,-5.292e-4 0.01292,-0.00155 0.046242,-0.00678 0.072222,0.0087 0.086816,0.028939 H 3.481433 c 0.024381,-0.00385 0.049095,-0.00545 0.073381,-0.010335 0.027438,-0.01024 0.055694,-0.00955 0.084232,-0.00672 0.019494,0.00194 0.027811,0.0086 0.032039,0.017053 H 6.4595541 11.592057 V 4.094323 6.6450717 H 6.4595541 1.3275676 V 4.094323 1.6701816 C 1.286042,1.6649744 1.2443092,1.6603901 1.2030274,1.6531284 1.0986949,1.6347753 1.1024621,1.5480579 1.1802898,1.5337558 1.1950403,1.5141008 1.2202504,1.498949 1.2655559,1.504817 1.4539122,1.529213 1.6435458,1.4985746 1.830896,1.4794956 1.9302803,1.4701556 1.9283,1.470582 2.0283,1.460892 c 0.048835,-0.00473 0.042702,-0.0033 0.07338,-0.00982 0.00359,-0.00177 0.00759,-0.00327 0.011369,-0.00465 0.00995,-0.0092 0.017873,-0.012785 0.024805,-0.012919 z" />
    <path
       id="path195"
       style="fill:#ff0000;stroke-width:0.0474834"
       transform="scale(0.26458333)"
       d="m 12.46875,5.4550781 c 4.35e-4,0.00131 0.0015,0.00259 0.002,0.00391 0.219869,-0.00244 0.440944,0.014073 0.660156,0.00195 0.01387,-7.657e-4 0.02718,-0.00491 0.04102,-0.00586 z m 1.755859,0 c -0.0074,0.1147843 -0.168015,0.2851738 -0.246093,0.3652344 0.03241,-0.00345 0.06372,-0.018051 0.04883,-0.00781 -0.120033,0.08246 -0.100853,0.061171 -0.04883,0.00781 -0.06861,0.00731 -0.176394,0.019424 -0.103516,0.015625 -0.248135,0.048915 -0.492714,0.085852 -0.746094,0.099609 -0.248521,0.013517 -0.499297,-0.012394 -0.748047,-0.00195 -0.451854,0.00178 -0.192222,-7.162e-4 -0.53125,0.00391 -0.114289,0.00156 -0.227862,0.013078 -0.341797,0.00391 -0.05731,-0.00463 -0.114853,-0.015996 -0.171874,-0.023437 -0.01989,0.013031 -0.03906,0.02707 -0.06055,0.037109 -0.05808,0.027118 -0.118649,0.050772 -0.179688,0.070312 -0.02069,0.00662 -0.04287,0.00533 -0.06445,0.00781 -0.05118,0.00506 -0.165475,0.018014 -0.216797,0.017578 -0.310793,-0.00264 -0.618679,-0.062614 -0.9257811,-0.1035156 -0.048435,-0.00752 -0.0959,-0.017352 -0.1445313,-0.023437 -0.094307,-0.011844 -0.1925304,0.00998 -0.2871094,0 -0.1413664,-3.231e-4 -0.2824813,-8.892e-4 -0.4238281,0.00195 -0.7075438,-0.00157 -1.415661,-0.02022 -2.1230469,0 -0.2068535,0.00695 -0.4141305,0.021782 -0.6210937,0.023438 -0.3098206,0.00248 -0.6170529,-0.025984 -0.9238281,-0.064453 v 9.1621094 9.591797 H 24.738281 44.111328 V 15.046875 5.4550781 H 24.738281 Z m -2.851562,0.4414063 c -0.0076,0.00377 -0.01422,0.00923 -0.02149,0.013672 0.0051,-0.0012 0.0021,-0.00229 0.03516,-0.00977 0.0045,-0.00174 -0.0094,-0.00603 -0.01367,-0.00391 z M 6.6484375,6.5 H 24.691406 42.734375 v 8.404297 8.40625 H 24.691406 6.6484375 v -8.40625 z" />
    <path
       style="fill:#ff5555;stroke-width:0.0474834"
       d="M 6.6951567,14.905033 V 6.5479582 H 24.7151 42.735043 v 8.3570748 8.357075 H 24.7151 6.6951567 Z M 41.690408,15.023742 V 7.4976258 H 24.762583 7.8347578 v 7.5261162 7.526116 H 24.762583 41.690408 Z"
       id="path197"
       transform="scale(0.26458333)" />
    <rect
       style="fill:#ff8080;stroke-width:0.264583"
       id="rect199"
       width="8.2660532"
       height="3.376735"
       x="2.4066873"
       y="2.2471581" />
    <path
       style="fill:#ffd5d5;stroke-width:0.0474834"
       d="M 7.8822412,15.023742 V 7.5451092 H 24.762583 41.642925 v 7.4786328 7.478632 H 24.762583 7.8822412 Z M 40.360874,14.881292 V 8.4947768 H 24.7151 9.0693257 v 6.3865152 6.386514 H 24.7151 40.360874 Z"
       id="path201"
       transform="scale(0.26458333)" />
    <path
       style="fill:#ffaaaa;stroke-width:0.0474834"
       d="M 9.1168091,14.85755 V 8.4947768 H 24.7151 40.31339 V 14.85755 21.220323 H 24.7151 9.1168091 Z"
       id="path203"
       transform="scale(0.26458333)" />
    <path
       id="path227"
       style="fill:none;fill-rule:evenodd;stroke:#000000;stroke-width:0.999999"
       transform="scale(0.26458333)"
       d="m 9.2890625,1.5449219 c -2.0134329,0.05996 -3.9839422,0.964186 -5.2617187,2.6855469 -2.0248745,2.7278152 -1.583274,6.7646482 1.203125,8.8027342 2.45184,1.793376 6.0684792,1.386683 7.8730472,-1.125 l 2.015625,1.705078 C 17.606985,10.334786 17.09586,5.4541192 13.761719,2.9492188 12.447811,1.9620952 10.855066,1.498286 9.2890625,1.5449219 Z m 0.3808594,2.6230469 c 0.8365921,0.032404 1.6721381,0.2972804 2.3847661,0.796875 0.212687,0.1491068 0.403103,0.3179878 0.582031,0.4941406 0.164932,0.00373 0.330055,0.011028 0.49414,0.00195 0.220522,-0.012174 0.436454,-0.048374 0.652344,-0.091797 0.103703,-0.038702 0.210496,-0.036087 0.318359,-0.025391 0.322851,0.032054 -0.0071,0.3577052 -0.123046,0.4765625 0.03241,-0.00345 0.06372,-0.018051 0.04883,-0.00781 -0.120033,0.08246 -0.100853,0.061171 -0.04883,0.00781 -0.06861,0.00731 -0.176394,0.019424 -0.103516,0.015625 -0.248135,0.048915 -0.492714,0.085852 -0.746094,0.099609 -0.02206,0.0012 -0.04431,-6.317e-4 -0.06641,0 1.299453,1.6974151 1.327949,4.1783771 0.04102,5.9707031 L 11.085938,10.201172 C 10.224655,11.62408 8.283843,11.889058 6.9375,11.015625 5.2440362,9.9169988 4.9423926,7.5611541 6.0429688,5.9375 5.8524237,5.9314144 5.664191,5.8979811 5.4746094,5.8789062 c -0.023416,0.00189 -0.046908,0.00182 -0.070312,0.00391 C 5.3516601,5.8875119 5.3248306,5.866309 5.2832031,5.859375 5.1539002,5.8432326 5.0230741,5.8429242 4.8945312,5.8203125 4.5002037,5.7509465 4.514442,5.4231957 4.8085938,5.3691406 4.8643437,5.2948541 4.9596259,5.2375875 5.1308594,5.2597656 5.6622022,5.3285854 6.1954365,5.2770275 6.7265625,5.21875 7.542807,4.49632 8.5970882,4.1264139 9.6699219,4.1679688 Z M 11.085938,10.201172 C 11.732132,9.1335978 11.502913,7.6020769 10.349609,6.9824219 9.5637353,6.5601813 8.4292223,6.7556967 8.0605469,7.6425781 7.8544408,8.1383846 8.0185986,8.9131521 8.6425781,8.9980469 8.8728341,9.0293741 9.3717014,8.7507512 9.0683594,8.4941406 Z" />
    <path
       sodipodi:type="spiral"
       style="fill:none;fill-rule:evenodd;stroke:#000000;stroke-width:0.264583"
       id="path227-5"
       sodipodi:cx="9.8048744"
       sodipodi:cy="2.2277889"
       sodipodi:expansion="1"
       sodipodi:revolution="3"
       sodipodi:radius="2.0966957"
       sodipodi:argument="-18.147421"
       sodipodi:t0="0"
       d="M 9.8048744,2.2277889 C 9.8851337,2.2956838 9.7529506,2.3694737 9.6920287,2.3611851 9.5269341,2.3387233 9.4835499,2.1332795 9.5380821,2.0020974 9.6356275,1.7674433 9.9354822,1.7158827 10.143412,1.8276005 10.448557,1.9915509 10.509432,2.3967098 10.338459,2.679172 10.110579,3.0556497 9.5968655,3.1258656 9.2406456,2.8947697 8.7923792,2.603959 8.7128327,1.9803253 9.0044975,1.5507143 9.3577427,1.0303979 10.091999,0.94152439 10.594795,1.2940159 11.187322,1.7094149 11.285523,2.5547024 10.872044,3.130555 10.394665,3.7953997 9.4380862,3.9029304 8.7892625,3.4283543 8.0520279,2.8891107 7.935165,1.8210657 8.4709129,1.0993313 9.0719412,0.28965429 10.251577,0.16345674 11.046178,0.76043129 11.928336,1.4231862 12.06387,2.714503 11.405628,3.5819381" />
    <path
       sodipodi:type="spiral"
       style="fill:none;fill-rule:evenodd;stroke:#000000;stroke-width:0.264583"
       id="path227-5-3"
       sodipodi:cx="2.0855095"
       sodipodi:cy="5.953753"
       sodipodi:expansion="1"
       sodipodi:revolution="3"
       sodipodi:radius="2.0966957"
       sodipodi:argument="-18.147421"
       sodipodi:t0="0"
       d="M 2.0855095,5.953753 C 2.1657688,6.0216479 2.0335857,6.0954378 1.9726638,6.0871491 1.8075692,6.0646874 1.764185,5.8592436 1.8187172,5.7280615 1.9162626,5.4934074 2.2161173,5.4418467 2.4240468,5.5535645 2.7291917,5.7175149 2.7900671,6.1226738 2.6190941,6.4051361 2.391214,6.7816138 1.8775006,6.8518297 1.5212807,6.6207337 1.0730143,6.3299231 0.99346781,5.7062893 1.2851326,5.2766784 1.6383778,4.756362 2.372634,4.6674885 2.8754299,5.01998 3.4679575,5.435379 3.5661586,6.2806665 3.1526787,6.8565191 2.6752998,7.5213638 1.7187213,7.6288945 1.0698977,7.1543183 0.33266301,6.6150747 0.2158001,5.5470298 0.75154805,4.8252953 1.3525763,4.0156184 2.5322116,3.8894208 3.326813,4.4863954 4.2089711,5.1491503 4.3445055,6.440467 3.6862633,7.3079022" />
    <path
       sodipodi:type="spiral"
       style="fill:none;fill-rule:evenodd;stroke:#000000;stroke-width:0.264583"
       id="path227-5-5"
       sodipodi:cx="9.8392725"
       sodipodi:cy="5.9327836"
       sodipodi:expansion="1"
       sodipodi:revolution="3"
       sodipodi:radius="2.0966957"
       sodipodi:argument="-18.147421"
       sodipodi:t0="0"
       d="M 9.8392725,5.9327836 C 9.9195317,6.0006785 9.7873486,6.0744684 9.7264267,6.0661798 9.5613322,6.043718 9.517948,5.8382742 9.5724802,5.7070921 9.6700256,5.472438 9.9698803,5.4208773 10.17781,5.5325952 10.482955,5.6965455 10.54383,6.1017044 10.372857,6.3841667 10.144977,6.7606444 9.6312636,6.8308603 9.2750437,6.5997643 8.8267773,6.3089537 8.7472308,5.6853199 9.0388956,5.255709 9.3921408,4.7353926 10.126397,4.6465191 10.629193,4.9990106 11.22172,5.4144096 11.319922,6.2596971 10.906442,6.8355497 10.429063,7.5003944 9.4724842,7.6079251 8.8236606,7.1333489 8.086426,6.5941053 7.9695631,5.5260604 8.505311,4.8043259 9.1063392,3.994649 10.285975,3.8684514 11.080576,4.465426 c 0.882158,0.6627549 1.017692,1.9540716 0.35945,2.8215068" />
    <path
       sodipodi:type="spiral"
       style="fill:none;fill-rule:evenodd;stroke:#000000;stroke-width:0.264583"
       id="path227-5-6"
       sodipodi:cx="6.0298624"
       sodipodi:cy="4.4323225"
       sodipodi:expansion="1"
       sodipodi:revolution="3"
       sodipodi:radius="2.0966957"
       sodipodi:argument="-18.147421"
       sodipodi:t0="0"
       d="M 6.0298624,4.4323225 C 6.1101217,4.5002174 5.9779385,4.5740073 5.9170166,4.5657187 5.7519221,4.5432569 5.7085379,4.3378131 5.7630701,4.206631 5.8606155,3.9719769 6.1604702,3.9204162 6.3683997,4.0321341 6.6735446,4.1960844 6.73442,4.6012433 6.563447,4.8837056 6.3355669,5.2601833 5.8218535,5.3303992 5.4656336,5.0993032 5.0173672,4.8084926 4.9378207,4.1848588 5.2294855,3.7552479 5.5827307,3.2349315 6.3169868,3.146058 6.8197828,3.4985495 7.4123104,3.9139485 7.5105115,4.759236 7.0970316,5.3350886 6.6196527,5.9999333 5.6630741,6.107464 5.0142505,5.6328878 4.2770159,5.0936442 4.160153,4.0255993 4.6959009,3.3038648 5.2969291,2.4941879 6.4765645,2.3679903 7.2711658,2.9649649 8.1533239,3.6277198 8.2888584,4.9190365 7.6306162,5.7864717" />
    <g
       sodipodi:type="inkscape:box3d"
       id="g443"
       style="fill:#000000;fill-rule:evenodd;stroke:#000000"
       inkscape:perspectiveID="#perspective441"
       inkscape:corner0="2.7340425 : 0.009673241 : 0 : 1"
       inkscape:corner7="1.2710411 : 0.0019096984 : 0.25 : 1">
      <path
         sodipodi:type="inkscape:box3dside"
         id="path455"
         style="fill:#e9e9ff;fill-rule:evenodd;stroke:none;stroke-linejoin:round"
         inkscape:box3dsidetype="11"
         d="M 2.4904039,1.8728073 3.935626,0.65649744 V 3.7359962 l -1.4452221,0.085471 z"
         points="3.935626,0.65649744 3.935626,3.7359962 2.4904039,3.8214669 2.4904039,1.8728073 " />
      <path
         sodipodi:type="inkscape:box3dside"
         id="path445"
         style="fill:#353564;fill-rule:evenodd;stroke:none;stroke-linejoin:round"
         inkscape:box3dsidetype="6"
         d="m 1.7714269,1.7324806 v 2.0791255 l 0.718977,0.00986 V 1.8728073 Z"
         points="1.7714269,3.8116061 2.4904039,3.8214669 2.4904039,1.8728073 1.7714269,1.7324806 " />
      <path
         sodipodi:type="inkscape:box3dside"
         id="path447"
         style="fill:#4d4d9f;fill-rule:evenodd;stroke:none;stroke-linejoin:round"
         inkscape:box3dsidetype="5"
         d="M 1.7714269,1.7324806 2.9125775,0.29187915 3.935626,0.65649744 2.4904039,1.8728073 Z"
         points="2.9125775,0.29187915 3.935626,0.65649744 2.4904039,1.8728073 1.7714269,1.7324806 " />
      <path
         sodipodi:type="inkscape:box3dside"
         id="path453"
         style="fill:#afafde;fill-rule:evenodd;stroke:none;stroke-linejoin:round"
         inkscape:box3dsidetype="13"
         d="M 1.7714269,3.8116061 2.9125775,3.7103743 3.935626,3.7359962 2.4904039,3.8214669 Z"
         points="2.9125775,3.7103743 3.935626,3.7359962 2.4904039,3.8214669 1.7714269,3.8116061 " />
      <path
         sodipodi:type="inkscape:box3dside"
         id="path451"
         style="fill:#d7d7ff;fill-rule:evenodd;stroke:none;stroke-linejoin:round"
         inkscape:box3dsidetype="14"
         d="M 2.9125775,0.29187915 V 3.7103743 L 3.935626,3.7359962 V 0.65649744 Z"
         points="2.9125775,3.7103743 3.935626,3.7359962 3.935626,0.65649744 2.9125775,0.29187915 " />
      <path
         sodipodi:type="inkscape:box3dside"
         id="path449"
         style="fill:#8686bf;fill-rule:evenodd;stroke:none;stroke-linejoin:round"
         inkscape:box3dsidetype="3"
         d="M 1.7714269,1.7324806 2.9125775,0.29187915 V 3.7103743 L 1.7714269,3.8116061 Z"
         points="2.9125775,0.29187915 2.9125775,3.7103743 1.7714269,3.8116061 1.7714269,1.7324806 " />
    </g>
    <g
       sodipodi:type="inkscape:box3d"
       id="g457"
       style="fill:#000000;fill-rule:evenodd;stroke:#000000"
       inkscape:perspectiveID="#perspective441"
       inkscape:corner0="0.0052926541 : 0.0040918632 : 0 : 1"
       inkscape:corner7="-0.26980878 : 7.2556921e-06 : 0.25 : 1">
      <path
         sodipodi:type="inkscape:box3dside"
         id="path469"
         style="fill:#e9e9ff;fill-rule:evenodd;stroke:none;stroke-linejoin:round"
         inkscape:box3dsidetype="11"
         d="M 7.9040332,1.7629323 10.122387,1.1438453 V 5.3109992 L 7.9040332,5.016841 Z"
         points="10.122387,1.1438453 10.122387,5.3109992 7.9040332,5.016841 7.9040332,1.7629323 " />
      <path
         sodipodi:type="inkscape:box3dside"
         id="path459"
         style="fill:#353564;fill-rule:evenodd;stroke:none;stroke-linejoin:round"
         inkscape:box3dsidetype="6"
         d="m 6.5797589,1.2143812 v 4.063103 L 7.9040332,5.016841 V 1.7629323 Z"
         points="6.5797589,5.2774842 7.9040332,5.016841 7.9040332,1.7629323 6.5797589,1.2143812 " />
      <path
         sodipodi:type="inkscape:box3dside"
         id="path467"
         style="fill:#afafde;fill-rule:evenodd;stroke:none;stroke-linejoin:round"
         inkscape:box3dsidetype="13"
         d="M 6.5797589,5.2774842 9.0587001,5.7705533 10.122387,5.3109992 7.9040332,5.016841 Z"
         points="9.0587001,5.7705533 10.122387,5.3109992 7.9040332,5.016841 6.5797589,5.2774842 " />
      <path
         sodipodi:type="inkscape:box3dside"
         id="path461"
         style="fill:#4d4d9f;fill-rule:evenodd;stroke:none;stroke-linejoin:round"
         inkscape:box3dsidetype="5"
         d="M 6.5797589,1.2143812 9.0587001,0.17666559 10.122387,1.1438453 7.9040332,1.7629323 Z"
         points="9.0587001,0.17666559 10.122387,1.1438453 7.9040332,1.7629323 6.5797589,1.2143812 " />
      <path
         sodipodi:type="inkscape:box3dside"
         id="path465"
         style="fill:#d7d7ff;fill-rule:evenodd;stroke:none;stroke-linejoin:round"
         inkscape:box3dsidetype="14"
         d="M 9.0587001,0.17666559 V 5.7705533 L 10.122387,5.3109992 V 1.1438453 Z"
         points="9.0587001,5.7705533 10.122387,5.3109992 10.122387,1.1438453 9.0587001,0.17666559 " />
      <path
         sodipodi:type="inkscape:box3dside"
         id="path463"
         style="fill:#8686bf;fill-rule:evenodd;stroke:none;stroke-linejoin:round"
         inkscape:box3dsidetype="3"
         d="M 6.5797589,1.2143812 9.0587001,0.17666559 V 5.7705533 L 6.5797589,5.2774842 Z"
         points="9.0587001,0.17666559 9.0587001,5.7705533 6.5797589,5.2774842 6.5797589,1.2143812 " />
    </g>
    <g
       sodipodi:type="inkscape:box3d"
       id="g471"
       style="fill:#000000;fill-rule:evenodd;stroke:#000000"
       inkscape:perspectiveID="#perspective623"
       inkscape:corner0="1.9131351 : -0.00051738686 : 0 : 1"
       inkscape:corner7="-0.0032882958 : -0.0023752807 : 0.25 : 1">
      <path
         sodipodi:type="inkscape:box3dside"
         id="path483"
         style="fill:#e9e9ff;fill-rule:evenodd;stroke:none;stroke-width:1.37153;stroke-linejoin:round"
         inkscape:box3dsidetype="11"
         d="m 11.855326,-24.1878 18.2238,-6.35839 v -10.595096 l -18.2238,12.777556 z"
         points="30.079126,-30.54619 30.079126,-41.141286 11.855326,-28.36373 11.855326,-24.1878 " />
      <path
         sodipodi:type="inkscape:box3dside"
         id="path473"
         style="fill:#353564;fill-rule:evenodd;stroke:none;stroke-width:1.37153;stroke-linejoin:round"
         inkscape:box3dsidetype="6"
         d="m 8.5818193,-24.542777 v -4.534301 l 3.2735067,0.713348 v 4.17593 z"
         points="8.5818193,-29.077078 11.855326,-28.36373 11.855326,-24.1878 8.5818193,-24.542777 " />
      <path
         sodipodi:type="inkscape:box3dside"
         id="path481"
         style="fill:#afafde;fill-rule:evenodd;stroke:none;stroke-width:1.37153;stroke-linejoin:round"
         inkscape:box3dsidetype="13"
         d="m 8.5818193,-29.077078 16.5006587,-17.354072 4.996648,5.289864 -18.2238,12.777556 z"
         points="25.082478,-46.43115 30.079126,-41.141286 11.855326,-28.36373 8.5818193,-29.077078 " />
      <path
         sodipodi:type="inkscape:box3dside"
         id="path475"
         style="fill:#4d4d9f;fill-rule:evenodd;stroke:none;stroke-width:1.37153;stroke-linejoin:round"
         inkscape:box3dsidetype="5"
         d="m 8.5818193,-24.542777 16.5006587,-8.635764 4.996648,2.632351 -18.2238,6.35839 z"
         points="25.082478,-33.178541 30.079126,-30.54619 11.855326,-24.1878 8.5818193,-24.542777 " />
      <path
         sodipodi:type="inkscape:box3dside"
         id="path479"
         style="fill:#d7d7ff;fill-rule:evenodd;stroke:none;stroke-width:1.37153;stroke-linejoin:round"
         inkscape:box3dsidetype="14"
         d="M 25.082478,-33.178541 V -46.43115 l 4.996648,5.289864 v 10.595096 z"
         points="25.082478,-46.43115 30.079126,-41.141286 30.079126,-30.54619 25.082478,-33.178541 " />
      <path
         sodipodi:type="inkscape:box3dside"
         id="path477"
         style="fill:#8686bf;fill-rule:evenodd;stroke:none;stroke-width:1.37153;stroke-linejoin:round"
         inkscape:box3dsidetype="3"
         d="M 8.5818193,-24.542777 25.082478,-33.178541 V -46.43115 L 8.5818193,-29.077078 Z"
         points="25.082478,-33.178541 25.082478,-46.43115 8.5818193,-29.077078 8.5818193,-24.542777 " />
    </g>
    <g
       sodipodi:type="inkscape:box3d"
       id="g627"
       style="fill:#000000;fill-rule:evenodd;stroke:#000000"
       inkscape:perspectiveID="#perspective643"
       inkscape:corner0="9.0416144 : 0.032484889 : 0 : 1"
       inkscape:corner7="5.2196308 : 0.019488914 : 0.25 : 1">
      <path
         sodipodi:type="inkscape:box3dside"
         id="path639"
         style="fill:#e9e9ff;fill-rule:evenodd;stroke:none;stroke-width:3.80312;stroke-linejoin:round"
         inkscape:box3dsidetype="11"
         d="M 43.83321,4.3815292 74.967302,11.142177 V 3.5499894 L 43.83321,-0.39115735 Z"
         points="74.967302,11.142177 74.967302,3.5499894 43.83321,-0.39115735 43.83321,4.3815292 " />
      <path
         sodipodi:type="inkscape:box3dside"
         id="path629"
         style="fill:#353564;fill-rule:evenodd;stroke:none;stroke-width:3.80312;stroke-linejoin:round"
         inkscape:box3dsidetype="6"
         d="M 27.140611,4.6664443 V -0.22506496 L 43.83321,-0.39115735 V 4.3815292 Z"
         points="27.140611,-0.22506496 43.83321,-0.39115735 43.83321,4.3815292 27.140611,4.6664443 " />
      <path
         sodipodi:type="inkscape:box3dside"
         id="path631"
         style="fill:#4d4d9f;fill-rule:evenodd;stroke:none;stroke-width:3.80312;stroke-linejoin:round"
         inkscape:box3dsidetype="5"
         d="M 27.140611,4.6664443 49.268491,11.87392 74.967302,11.142177 43.83321,4.3815292 Z"
         points="49.268491,11.87392 74.967302,11.142177 43.83321,4.3815292 27.140611,4.6664443 " />
      <path
         sodipodi:type="inkscape:box3dside"
         id="path637"
         style="fill:#afafde;fill-rule:evenodd;stroke:none;stroke-width:3.80312;stroke-linejoin:round"
         inkscape:box3dsidetype="13"
         d="M 27.140611,-0.22506496 49.268491,3.9765618 74.967302,3.5499894 43.83321,-0.39115735 Z"
         points="49.268491,3.9765618 74.967302,3.5499894 43.83321,-0.39115735 27.140611,-0.22506496 " />
      <path
         sodipodi:type="inkscape:box3dside"
         id="path635"
         style="fill:#d7d7ff;fill-rule:evenodd;stroke:none;stroke-width:3.80312;stroke-linejoin:round"
         inkscape:box3dsidetype="14"
         d="M 49.268491,11.87392 V 3.9765618 L 74.967302,3.5499894 v 7.5921876 z"
         points="49.268491,3.9765618 74.967302,3.5499894 74.967302,11.142177 49.268491,11.87392 " />
      <path
         sodipodi:type="inkscape:box3dside"
         id="path633"
         style="fill:#8686bf;fill-rule:evenodd;stroke:none;stroke-width:3.80312;stroke-linejoin:round"
         inkscape:box3dsidetype="3"
         d="M 27.140611,4.6664443 49.268491,11.87392 V 3.9765618 l -22.12788,-4.20162676 z"
         points="49.268491,11.87392 49.268491,3.9765618 27.140611,-0.22506496 27.140611,4.6664443 " />
    </g>
  </g>
</svg>
